<svg width="4000" height="3326" xmlns="http://www.w3.org/2000/svg">
 <!--Creator: Logaster-->

 <g>
  <title>background</title>
  <rect fill="none" id="canvas_background" height="402" width="582" y="-1" x="-1"/>
 </g>
 <g>
  <title>Layer 1</title>
  <g id="svg_1" transform="matrix(23.25581395348837,0,0,23.25581395348837,0,0) ">
   <g id="svg_2" transform="matrix(1.2279683127231191,0,0,1.2279683127231191,-8.739222661551434,-13.66574232891194) ">
    <g id="svg_3" transform="matrix(0.7734320595489091,0,0,0.7734320595489091,40.39607764622981,58.247338586552274) ">
     <text id="svg_4" fill="#C72411" y="-32.405815" x="-0.309642" font-size="24" font-family="'Rammetto One'" xml:space="preserve">zukdoor</text>
    </g>
    <g id="svg_5" transform="matrix(0.08973018197029908,0,0,0.08973018197029908,14.761397197239079,56.63798996025936) ">
     <g id="svg_6">
      <path id="rnd1" d="m179.387032,-452.89865c-14.416,-1.272 -29.314,0.328 -43.929,5.135c-41.368,13.675 -69.41,49.61 -75.44,90.447l-13.46,0c5.394,-41.648 33.688,-78.536 75.717,-92.429c19.123,-6.314 38.728,-7.063 57.112,-3.153zm-62.121,-3.2c15.239,-5.026 30.76,-6.688 45.767,-5.385c-19.137,-4.059 -39.57,-3.286 -59.515,3.302c-45.33,14.979 -75.319,55.627 -79.416,100.866l13.967,0c4.809,-44.405 34.541,-84.031 79.197,-98.783zm23.778,14.845c-38.722,12.777 -65.236,45.941 -71.799,83.937l12.952,0c7.122,-37.2 33.386,-69.466 71.459,-82.032c13.986,-4.621 28.248,-6.151 42.042,-4.941c-17.595,-3.738 -36.346,-3.02 -54.654,3.036z" fill="#C63F2F"/>
      <path id="rnd2" d="m251.990032,-315.16865c-4.354,20.776 -13.89,39.08 -26.938,53.847c8.637,-12.519 14.969,-26.951 18.295,-42.834c9.716,-46.542 -9.305,-92.467 -44.86,-118.88l7.005,-12.246c36.628,26.217 56.375,72.845 46.498,120.113zm-57.742,-100.421l-6.718,11.818c31.877,25.702 48.586,68.279 39.583,111.395c-3.185,15.235 -9.266,29.113 -17.557,41.133c12.522,-14.188 21.686,-31.743 25.84,-51.686c9.158,-43.834 -8.245,-87.106 -41.148,-112.66zm-0.207,174.351c11.964,-13.573 20.748,-30.393 24.735,-49.484c8.426,-40.359 -6.684,-80.206 -35.87,-104.956l-6.473,11.372c28.229,24.82 42.671,64.01 34.406,103.707c-3.068,14.579 -8.886,27.849 -16.798,39.361z" fill="#D0938B"/>
      <path id="rnd3" d="m23.601032,-342.79965c5.875,12.692 14.295,24.438 25.25,34.397c29.783,27.115 70.515,34.046 105.853,21.683l6.473,11.372c-35.742,13.245 -77.36,6.549 -107.657,-21.026c-14.328,-13.043 -24.313,-29.136 -29.919,-46.426zm32.037,67.126c32.911,29.955 78.574,36.34 116.886,20.229l-6.73,-11.825c-37.919,15.143 -82.665,8.516 -115.029,-20.956c-11.444,-10.412 -20.248,-22.682 -26.368,-35.966c5.857,18.077 16.273,34.896 31.241,48.518zm-2.902,7.585c-11.931,-10.833 -21.101,-23.641 -27.484,-37.479c6.087,18.849 16.973,36.363 32.564,50.568c35.472,32.306 85.202,38.293 125.926,19.264l-6.974,-12.254c-40.379,17.975 -89.118,11.708 -124.032,-20.099z" fill="#470D06"/>
     </g>
    </g>
   </g>
  </g>
 </g>
</svg>